<?xml version="1.0" standalone="no"?><!DOCTYPE svg PUBLIC "-//W3C//DTD SVG 1.1//EN" "http://www.w3.org/Graphics/SVG/1.1/DTD/svg11.dtd"><svg t="1729656137319" class="icon" viewBox="0 0 1024 1024" version="1.1" xmlns="http://www.w3.org/2000/svg" p-id="10429" xmlns:xlink="http://www.w3.org/1999/xlink" width="32" height="32"><path d="M784.2816 128H136.8576a66.56 66.56 0 0 0-36.5568 122.1632L328.704 400.384a25.6 25.6 0 0 1 11.52 21.3504v355.328c0 26.624 13.824 51.456 36.5568 65.4336l101.632 62.464a66.56 66.56 0 0 0 101.4272-56.6784v-426.496a25.6 25.6 0 0 1 11.5712-21.4016l229.3248-150.1184a66.56 66.56 0 0 0-36.4544-122.2656z m-647.424 51.2h647.424a15.36 15.36 0 0 1 8.3968 28.2112l-229.3248 150.1696a76.8 76.8 0 0 0-34.7136 64.256v426.496a15.36 15.36 0 0 1-23.3984 13.056l-101.632-62.5152a25.6 25.6 0 0 1-12.1856-21.8112v-355.328a76.8 76.8 0 0 0-34.6112-64.1536L128.512 207.4112a15.36 15.36 0 0 1 8.3968-28.2112z" fill="#515151" p-id="10430"></path><path d="M921.6 486.4a25.6 25.6 0 0 1 4.608 50.7904L921.6 537.6h-204.8a25.6 25.6 0 0 1-4.608-50.7904L716.8 486.4h204.8zM921.6 640a25.6 25.6 0 0 1 4.608 50.7904L921.6 691.2h-204.8a25.6 25.6 0 0 1-4.608-50.7904L716.8 640h204.8zM921.6 793.6a25.6 25.6 0 0 1 4.608 50.7904L921.6 844.8h-204.8a25.6 25.6 0 0 1-4.608-50.7904L716.8 793.6h204.8z" fill="#515151" p-id="10431"></path></svg>